<svg xmlns="http://www.w3.org/2000/svg" width="256" height="256"><path fill="#1976D2" fill-opacity=".016" fill-rule="evenodd" d="M0 128.004v128.004l128.25-.254 128.25-.254.254-127.75L257.008 0H0zm.485.496c0 70.4.119 99.053.265 63.672s.146-92.98 0-128S.485 58.1.485 128.5"/><path fill="#1976D2" fill-opacity=".307" fill-rule="evenodd" d="M132 13.429C99.449 22.626 43.549 48.097 21.5 63.78 10.18 71.832 6.075 77.214 4.134 86.55 3.568 89.273 2.379 93.975 1.493 97c-2.003 6.835-1.36 13.982 1.927 21.415 1.323 2.991 11.401 18.947 22.396 35.458l19.991 30.019-3.1 2.391-3.101 2.392 13.284 12.87C68.459 216.629 71.469 219 75.052 219c2.172 0 3.335 1.088 6.304 5.898 4.753 7.7 12.993 15.145 19.211 17.357 10.812 3.846 21.387 1.408 51.425-11.856 7.97-3.519 14.82-6.399 15.22-6.399s3.105-1.065 6.008-2.366 11.805-5.188 19.78-8.638c31.341-13.558 41.662-18.198 45.58-20.492 5.874-3.439 11.111-9.188 14.087-15.462 2.327-4.907 2.587-6.631 2.574-17.098-.011-9.381-.395-12.504-1.98-16.087-2.58-5.833-10.977-18.997-20.027-31.4-13.343-18.283-18.08-24.895-23.927-33.397-3.193-4.642-7.882-10.492-10.42-13-2.92-2.886-6.105-7.68-8.677-13.06C172.792 16.562 157.561 6.208 132 13.429m16.439 22.195c-3.816 1.37-8.739 3.079-10.939 3.796s-11.875 4.344-21.5 8.06c-9.625 3.715-19.75 7.527-22.5 8.47S79.725 61.043 69 65.172c-10.725 4.13-21.3 8.159-23.5 8.954-3.238 1.17-4.063 1.992-4.331 4.316C40.817 81.487 43.688 89 45.203 89c.495 0 11.114-3.791 23.598-8.424C96.833 70.174 104.154 67.48 125 59.897c9.075-3.301 21.503-7.897 27.618-10.213l11.117-4.21-2.273-5.151c-3.183-7.214-4.599-7.724-13.023-4.699m11.427 15.588A2170 2170 0 0 1 149 55.152c-10.582 3.8-49.683 18.127-70.5 25.833-11.55 4.275-22.555 8.286-24.455 8.913C48.183 91.834 46 93.762 46 97.007c0 3.593 7.047 18.21 8.479 17.587.561-.244 12.496-5.464 26.521-11.6s28.2-12.201 31.5-13.477c9.226-3.57 11.502-4.744 11.481-5.928-.011-.599 4.376-5.296 9.75-10.439l9.769-9.349 8.09-.511c7.812-.494 8.162-.421 10.148 2.104l2.057 2.615 6.641-2.98 6.641-2.98-1.502-2.905c-2.232-4.315-6.296-8.838-8.447-9.4-1.043-.273-4.311.388-7.262 1.468M136.5 73.663c-6.775 6.358-6.295 6.979.597.773 3.591-3.234 7.492-7.468 6.808-7.39-.223.026-3.555 3.003-7.405 6.617m1.453 20.766c-1.899.666-8.403 3.283-14.453 5.815a2080 2080 0 0 1-23.5 9.616c-26.048 10.448-34.404 14.041-36.174 15.557-2.805 2.402-2.315 7.985 1.247 14.211 2.81 4.91 5.36 6.605 7.189 4.777.327-.328-1.008-3.513-2.969-7.079-3.011-5.479-3.349-6.685-2.178-7.777 1.343-1.254 18.804-8.528 43.385-18.073a4430 4430 0 0 0 20.624-8.068c4.743-1.874 9.283-3.408 10.089-3.408s2.021 1.237 2.699 2.75c2.791 6.224 3.985 7.373 6.372 6.131 1.219-.633 2.377-1.289 2.573-1.457.529-.452-5.664-11.031-7.113-12.152-2.371-1.833-4.355-2.048-7.791-.843M4.122 102.572c-.158 6.576 2.165 13.348 7.349 21.428 11.901 18.546 19.882 29.998 20.896 29.985.623-.009.458-.452-.367-.985s-1.174-.976-.775-.985c.398-.008-4.277-7.777-10.39-17.265-12.342-19.157-14.591-23.679-15.778-31.735L4.244 97.5zM135 108c-3.473 1.901-3.479 1.916-.782 1.958 1.898.029 3.136.839 4.103 2.685.865 1.651 1.645 2.222 2.078 1.52.381-.617.158-2.122-.496-3.345-.885-1.652-.896-2.32-.046-2.604 1.543-.514 1.459-2.225-.107-2.172-.687.023-2.825.904-4.75 1.958m-8.674 4.553c-3.013 1.32-3.116 1.544-2.031 4.419 1.276 3.38 2.086 3.597 5.705 1.528l2.5-1.429-3.25-.036c-3.885-.042-4.172-1.204-.75-3.035 1.375-.736 2.5-1.712 2.5-2.169 0-1.087-.84-.957-4.674.722m-7.826 3.625c-1.1.614-2.129 1.217-2.287 1.34-.159.123.251 1.407.91 2.853 1.274 2.795 2.183 3.056 5.377 1.538 1.825-.867 1.797-.911-.329-.502-1.713.329-2.184.07-1.781-.98.301-.785.111-1.427-.421-1.427-.533 0-.969-.45-.969-1s.675-1 1.5-1 1.5-.45 1.5-1c0-1.276-.987-1.225-3.5.178m57.479 2.734c-10.054 4.64-42.35 19.027-56.479 25.16-5.5 2.388-10.562 4.753-11.25 5.257-2.006 1.47-1.451 6.336 1.364 11.954 3.206 6.398 5.175 8.717 7.402 8.717.938 0 8.631-3.19 17.095-7.088s23.039-10.614 32.389-14.923 19.475-8.845 22.5-10.08c6.33-2.583 9-4.581 9-6.733 0-1.7-5.406-11.735-7.772-14.426-2.262-2.574-4.829-2.185-14.249 2.162m-64.979.409c-1.375.59-2.654 1.175-2.842 1.301s.232 1.814.933 3.752l1.274 3.524 2.817-1.665c3.22-1.902 3.724-3.283.931-2.552-2.653.694-3.687-1.541-1.465-3.166 2.471-1.806 1.47-2.531-1.648-1.194m-6.547 3.341c-.576.203-.862 1.96-.635 3.905.306 2.618.837 3.451 2.047 3.209 1.109-.221 1.523-1.122 1.286-2.801-.458-3.252-1.406-4.768-2.698-4.313m-4.771 1.99c-.375.375-.682 1.506-.682 2.515 0 1.008-.45 1.833-1 1.833s-1-.45-1-1-.675-1-1.5-1c-.957 0-1.5.962-1.5 2.655 0 2.509-.101 2.564-1.829 1-3.578-3.238-4.351-1.424-1.134 2.665 2.245 2.854 4.963 2.62 4.963-.427 0-2.131 1.057-2.436 2.713-.78 1.636 1.636 3.289.16 3.272-2.922-.018-3.058-1.286-5.557-2.303-4.539m85.2-.024a6.7 6.7 0 0 0 .04 1.745c.088.48-.545.602-1.406.271-1.513-.58-14.672 5.083-15.349 6.606-.184.412-1.395.75-2.691.75-1.297 0-2.636.45-2.976 1s-1.661 1-2.937 1c-2.981 0-4.908 2.338-4.079 4.95 1.016 3.202 7.516 4.043 7.516.972 0-.528-1.125-.678-2.5-.333-2.075.521-2.5.269-2.5-1.481 0-2.447 2.196-2.782 4-.608 2.529 3.047 9.218.637 7.512-2.706-.363-.712.018-.461.847.556 2.242 2.751 3.985 1.105 2.015-1.902-.882-1.346-1.157-2.448-.611-2.448s1.674 1.012 2.506 2.25c1.906 2.835 3.285 1.718 1.745-1.414-1.109-2.257-1.08-2.252.85.149 1.1 1.367 2.327 2.157 2.728 1.756s-.131-1.744-1.181-2.985c-1.91-2.255-1.91-2.255.168-.506 2.545 2.142 4.775 2.233 6.412.261.68-.819 1.522-1.322 1.872-1.117.35.204 1.649-.011 2.887-.479 2.807-1.061 3.039-3.3.25-2.415-1.37.435-2 .18-2-.81 0-1.59-2.928-4.465-3.118-3.062m-4.339 5.303c-.74 1.197 1.141 2.382 2.473 1.559 1.119-.691.384-2.49-1.016-2.49-.485 0-1.141.419-1.457.931m-99.293 2.596c-2.82 1.988-3.016 5.473-.309 5.473 1.068 0 2.209.433 2.536.962.677 1.096 5.523-.766 5.523-2.123 0-.461-1.575-.839-3.5-.839-4.013 0-4.771-1.708-.969-2.184 1.392-.174 2.63-.766 2.75-1.316.367-1.676-3.641-1.658-6.031.027m82.444 4.112c-.933.934.194 2.361 1.865 2.361.793 0 1.441-.675 1.441-1.5 0-1.506-2.111-2.056-3.306-.861m-21.944 6.691c-6.629 3.135-8.75 4.615-8.75 6.104 0 1.529-.267 1.699-1.2.766-1.79-1.79-2.8-1.457-2.8.922 0 1.637-.3 1.874-1.31 1.036-2.072-1.72-7.131.072-7.51 2.659-.263 1.798.178 2.188 2.5 2.213 2.399.026 2.559.183 1.07 1.05-2.073 1.207-2.31 2.92-.405 2.92 1.885 0 4.988-3.653 4.194-4.937-.361-.585-1.643-1.115-2.848-1.179-1.802-.095-1.867-.2-.367-.588 1.004-.259 2.663.287 3.687 1.214 1.901 1.72 4.54 1.19 3.385-.679-.404-.653.115-.628 1.418.069 2.966 1.588 3.179 1.446 3.249-2.15.058-2.95.147-3.042.968-1 1.094 2.72.682 2.707 6.342.203 4.757-2.104 6.387-4.524 2.377-3.53-1.238.307-1.687.3-1-.016 2.04-.936 1.421-2.685-.75-2.117-2.843.743-2.475.007.857-1.716 2.714-1.403 2.923-1.355 4.169.974 1.348 2.52 2.974 3.278 2.974 1.386 0-.586-.451-1.909-1.003-2.939-.67-1.252-.67-2.079 0-2.493 1.166-.721 1.358-2.547.253-2.406-.412.053-4.687 1.958-9.5 4.234m105.408 29.785c-3.632 7.611-7.91 12.462-13.246 15.022-9.235 4.431-33.37 15.159-40.912 18.187-4.675 1.877-16.6 6.875-26.5 11.108-33.175 14.183-35.974 15.339-42.254 17.458-7.436 2.509-16.789 2.746-22.026.557-2.044-.854-5.881-3.377-8.526-5.608-6.453-5.441-7.12-4.17-1.016 1.934 7.819 7.819 17.066 9.977 28.369 6.62 5.268-1.564 22.949-8.882 53.453-22.123 8.25-3.582 17.7-7.607 21-8.947 8.962-3.637 26.103-11.289 39.708-17.727 7.564-3.58 13.887-11.698 15.845-20.346 1.166-5.148-.277-3.716-3.895 3.865M48.856 188.021c-1.373.802.212 2.772 9.634 11.969C64.693 206.046 70.072 211 70.444 211c1.176 0-9.182-14.299-13.944-19.25-4.888-5.081-5.128-5.198-7.644-3.729"/><path fill="#1976D2" fill-opacity=".206" fill-rule="evenodd" d="M136.762 12.555c-27.454 6.116-90.791 34.45-114.679 51.302-12.786 9.02-14.473 11.355-18.202 25.2-5.356 19.886-4.13 25.196 11.073 47.943 29.899 44.736 31.438 47.201 29.988 48.034-5.654 3.25-5.974 2.608 8.255 16.571 14.585 14.313 17.251 16.396 21.398 16.714 2.208.17 3.699 1.559 7.188 6.698 9.299 13.697 16.774 18.501 28.717 18.458 10.258-.038 14.328-1.524 71-25.934 6.05-2.606 17.92-7.643 26.377-11.193 30.719-12.896 38.21-17.622 43.66-27.544 2.707-4.929 2.934-6.18 3.214-17.7.29-11.919.189-12.636-2.624-18.647-3.146-6.721-11.23-19.217-20.706-32.003-3.242-4.375-7.7-10.502-9.908-13.617-14.486-20.442-20.682-28.704-23.498-31.337-1.765-1.65-5.24-7.05-7.723-12-17.855-35.599-31.313-45.893-53.53-40.945M138 22.033c-2.475.438-8.848 2.388-14.163 4.333C86.933 39.868 47.831 58.397 28 71.781c-11.858 8.002-15.534 15.429-12.612 25.48.907 3.12 2.756 6.461 4.503 8.135l2.965 2.84.322-3.368c.348-3.638 1.359-4.36 13.046-9.311l5.725-2.424-2.475-5.595c-2.917-6.597-3.131-10.542-.724-13.379C40.2 72.449 82.211 55 84.878 55c.434 0 6.602-2.298 13.706-5.106 7.104-2.809 15.166-5.926 17.916-6.928 2.75-1.003 9.5-3.469 15-5.481 23.671-8.66 24.112-8.779 27.18-7.323 1.911.907 3.948 3.567 6.32 8.253 3.732 7.373 5.7 9.298 8.433 8.249 2.352-.902 1.337-3.729-4.087-11.387-8.8-12.422-16.833-15.816-31.346-13.244m8 13.908c-13.323 5.09-40.097 15.175-56 21.093-49.43 18.395-47.823 17.739-49.36 20.175-1.218 1.931 1.838 10.653 4.026 11.493.795.305 12.107-3.395 25.139-8.223A16063 16063 0 0 1 115 63.827c42.562-15.591 47.137-17.293 48.147-17.918 1.096-.677-3.526-10.829-5.528-12.144-1.823-1.197-3.72-.841-11.619 2.176m14 14.676c-1.925.873-6.546 2.642-10.268 3.931-12.158 4.212-92.695 33.958-98.091 36.229-5.057 2.129-6.876 4.916-5.757 8.819C47.141 103.977 53.049 115 54.141 115c.516 0 2.833-.967 5.149-2.148s10.735-4.937 18.71-8.347a31105 31105 0 0 0 24-10.271c5.225-2.241 12.2-5.185 15.5-6.544s10.95-4.571 17-7.14 15.725-6.621 21.5-9.004c16.547-6.829 19.733-8.305 20.456-9.476.373-.602-1.04-3.677-3.139-6.832-4.309-6.478-7.092-7.443-13.317-4.621m17 15.892c-2.475 1.33-7.941 3.772-12.146 5.427s-12.755 5.232-19 7.949A1107 1107 0 0 1 123 89.462c-6.325 2.549-17.575 7.254-25 10.454a3056 3056 0 0 1-25 10.628c-17.797 7.443-22.983 11.463-23.016 17.841-.018 3.411 7.833 19.624 9.49 19.6.565-.009 1.701-.498 2.526-1.087 1.235-.882 1.142-.995-.525-.637-1.705.366-2.067-.134-2.289-3.163-.146-1.979-.515-5.944-.82-8.812-1.015-9.551.892-10.748 44.963-28.229 6.694-2.655 17.113-6.961 23.153-9.569 6.04-2.607 12.565-4.952 14.5-5.21 4.527-.603 8.208 2.19 11.532 8.75 1.346 2.657 2.85 5.079 3.341 5.382.703.435 42.53-19.478 44.024-20.959.511-.507-5.622-9.993-7.434-11.497-.795-.659-1.445-1.766-1.445-2.46 0-1.422 3.381-2.599 4.68-1.628.466.349-.508-.591-2.166-2.089-3.962-3.579-10.166-3.68-16.514-.268m-52.5 32.914c-8.25 3.457-24.874 10.289-36.943 15.181-12.068 4.893-22.862 9.639-23.985 10.546-3.047 2.46-2.519 8.202 1.389 15.128 1.777 3.147 3.442 5.722 3.7 5.722.259 0 1.366-.479 2.461-1.065 1.928-1.032 1.879-1.266-1.584-7.567-1.965-3.576-3.346-6.869-3.069-7.319.278-.449 7.374-3.547 15.768-6.885 22.262-8.851 28.653-11.042 28.114-9.636-.256.668.242 1.485 1.107 1.817 1.478.568 4.627-.849 12.317-5.541 1.802-1.099 3.963-1.735 4.802-1.413.84.322 1.284.193.987-.287-.51-.825 8.283-3.591 9.033-2.841.194.194-1.236.928-3.177 1.63-3.743 1.353-4.199 3.819-.61 3.3 1.577-.228 2.291.362 2.776 2.293.864 3.444 2.971 2.59 2.705-1.095-.115-1.59.609-3.967 1.61-5.282l1.82-2.39 1.855 3.14c2.026 3.431 2.844 3.681 6.072 1.856 2.147-1.214 2.146-1.218-1.417-7.381-3.277-5.666-6.474-8.44-9.528-8.265-.662.038-7.953 2.897-16.203 6.354M3.752 99.5c-1.582 9.959 1.082 15.508 23.695 49.365 20.916 31.318 22.737 33.758 24.414 32.721.82-.507-.328-2.661-3.682-6.911-2.68-3.396-9.594-13.375-15.363-22.175-25.221-38.468-25.275-38.567-27.225-49.963-1.184-6.919-1.214-6.97-1.839-3.037m31.748 1.213c-2.2.885-4.163 1.738-4.362 1.894s1.218 2.221 3.149 4.588 4.489 6.193 5.684 8.501c2.015 3.887 2.353 4.114 4.606 3.087 1.337-.609 2.243-1.296 2.013-1.526-.23-.231-1.4.106-2.599.748-1.94 1.038-2.112.953-1.563-.778.739-2.327-.276-5.439-1.521-4.669-.486.3-.634-.107-.327-.905.306-.798.076-1.748-.512-2.111-.587-.363-1.068-1.11-1.068-1.66s.445-.725.989-.389c.566.35.734-.051.393-.941-.328-.854-.984-1.552-1.458-1.552-.473 0-.602-.675-.286-1.5.33-.859.021-1.5-.722-1.5-.772 0-.512-.595.643-1.468 2.452-1.855 1.922-1.824-3.059.181m-8.5 5.256c0 1.249.497 1.777 1.361 1.446.913-.35 2.778 2.203 5.672 7.765 2.371 4.558 4.484 7.768 4.696 7.133.797-2.391-8.635-18.313-10.848-18.313-.484 0-.881.886-.881 1.969m99.75 5.689c-4.068 1.688-4.216 1.987-2.807 5.692 1.158 3.045-1.252 4.484-3.592 2.144-1.333-1.333-1.325-1.567.075-2.104.866-.332 1.574-1.207 1.574-1.945 0-1.056-.638-1.118-3.002-.295-4.018 1.401-4.192 1.915-1.881 5.566l1.98 3.127 6.926-3.059c6.493-2.868 8.669-5.677 3.368-4.346-1.448.364-2.391.161-2.391-.513 0-.612.9-1.348 2-1.635 1.107-.29 2-1.364 2-2.407 0-1.035-.113-1.86-.25-1.831-.137.028-1.937.751-4 1.606M12.182 115.5c.626 1.375 1.527 2.5 2.002 2.5s.125-1.125-.776-2.5-1.802-2.5-2.002-2.5.149 1.125.776 2.5M29 113.206c0 1.322 4.161 9.776 5.097 10.354.571.353-.171-1.766-1.649-4.709-2.734-5.44-3.448-6.61-3.448-5.645m145 6.231c-5.225 2.393-17.825 8.035-28 12.539-30.153 13.346-36.433 16.22-37.75 17.271-2.22 1.773-1.336 7.989 2.028 14.253 4.465 8.315 5.395 8.303 24.095-.316 16.625-7.662 50.379-23.063 57.904-26.42 6.324-2.821 6.941-5.285 3.115-12.446-5.856-10.96-7.368-11.305-21.392-4.881m-63-.724c-3.547 1.313-3.95 2.325-2.302 5.78l1.591 3.337 3.356-1.6c3.92-1.87 4.484-3.73.855-2.819-1.783.447-2.5.222-2.5-.785 0-.777.675-1.671 1.5-1.988s1.5-1.039 1.5-1.607c0-1.1-1.554-1.223-4-.318m-7.403 4.131c-.72 1.164.49 8.156 1.411 8.156 1.671 0 2.729-2.69 2.261-5.75-.462-3.025-2.475-4.344-3.672-2.406m-5.009 2.013c-.327.529-.292 1.791.078 2.803.643 1.759.585 1.763-1.325.09-2.689-2.354-3.341-2.208-3.341.75 0 1.375-.45 2.5-1 2.5s-1-.45-1-1-.9-1-2-1c-2.755 0-2.509 1.138.964 4.465 2.469 2.366 3.218 2.629 4.489 1.574.839-.696 1.283-1.658.986-2.137s.827-.599 2.496-.265c3.565.713 4.454-.673 3.256-5.072-.833-3.055-2.577-4.367-3.603-2.708m-58.535 1.579c-.885 1.066-.907 1.968-.087 3.5 1.242 2.321 2.539 2.823 1.71.662-.296-.771-.256-1.684.089-2.029.961-.962 1.158-3.569.269-3.569-.434 0-1.325.646-1.981 1.436m144.98-1.233c-.062 1.324 2.287 5.797 3.046 5.797 1.668 0 3.921-1.272 3.921-2.214 0-.55-.715-.726-1.588-.391-.971.373-2.317-.265-3.467-1.643-1.033-1.238-1.893-1.936-1.912-1.549M179 128.039c-.825.53-3.67 1.861-6.322 2.957l-4.821 1.994 2.263 3.179c1.362 1.913 2.432 2.676 2.684 1.918.232-.694-.08-1.763-.691-2.375-1.506-1.505-1.402-2.712.234-2.712.741 0 1.867 1.012 2.502 2.25 1.026 1.998 1.089 1.857.566-1.25-.581-3.452-.566-3.469 1.055-1.25.904 1.238 2.138 2.25 2.742 2.25s.353-.823-.557-1.829c-2.349-2.595-2.06-3.576.345-1.171 2.384 2.384 3.016 2.447 5.559.559 3.698-2.746-1.606-7.058-5.559-4.52m1.25 2.211c.63 1.892 3.75 2.161 3.75.323 0-.927-.855-1.573-2.083-1.573-1.222 0-1.912.517-1.667 1.25m-99.5 1.806c-.963.574-1.75 2.157-1.75 3.518 0 3.25 3.717 4.769 8.008 3.273 3.887-1.355 3.305-3.43-.867-3.093-1.727.139-3.141-.198-3.141-.75S84.162 134 85.583 134c1.619 0 2.43-.467 2.173-1.25-.531-1.617-4.755-2.035-7.006-.694m81.6 3.474c-.355.926-1.288 1.307-2.363.966-1.676-.532-4.987 1.739-4.987 3.42 0 1.837 3.944 4.236 5.928 3.607 2.998-.952 2.544-2.432-.678-2.211-1.851.126-2.75-.298-2.75-1.298 0-2.121 3.202-2.455 5.123-.534 3.42 3.42 8.4-.338 5.337-4.028-1.581-1.905-4.866-1.859-5.61.078m.65 1.97c0 .833.889 1.5 2 1.5s2-.667 2-1.5-.889-1.5-2-1.5-2 .667-2 1.5m-20.853 6.204c-7.845 3.688-9.271 4.712-8.844 6.347.531 2.029-.727 2.691-1.803.949-.963-1.558-2.5-1.176-2.5.622 0 1.303-.285 1.386-1.448.421-1.133-.94-2.058-.909-4.25.141-3.728 1.787-3.632 4.222.183 4.655l2.985.339-2.37 1.269c-1.304.697-1.933 1.538-1.398 1.869s1.967-.096 3.183-.948c1.804-1.264 1.985-1.82.983-3.028-.676-.813-2.047-1.265-3.048-1.003-2.274.595-2.414-.895-.165-1.758.992-.381 2.521.177 3.815 1.393 2.762 2.594 3.53 2.557 3.53-.172 0-1.711.267-1.933 1.2-1 2.344 2.344 4.057 1.405 3.564-1.954-.411-2.804-.317-2.955.85-1.359.723.988 1.443 2.163 1.6 2.61.339.966 9.784-3.248 9.785-4.366.001-.423-1.237-.482-2.749-.131-2.682.622-2.7.596-.75-1.033 1.963-1.64 1.954-1.659-.5-1.066l-2.5.605 2.361-2.053c2.946-2.562 3.792-2.57 5.139-.053.589 1.1 1.52 2 2.07 2 .633 0 .595-.758-.104-2.064-.823-1.537-.796-2.436.107-3.524.667-.803 1.035-1.606.82-1.783-.216-.178-4.602 1.656-9.746 4.075m-4.052 3.237c-.719.445-.901 1.061-.404 1.368s1.494.195 2.214-.25c.719-.445.901-1.061.404-1.368s-1.494-.195-2.214.25m1.572 2.726c-1.215 1.214-.691 2.28.833 1.695.825-.317 1.5-.978 1.5-1.469 0-1.048-1.378-1.182-2.333-.226M39.089 156.75c3.03 5.043 8.962 13.25 9.578 13.25.663 0-3.198-6.372-7.423-12.25-4.08-5.677-5.305-6.245-2.155-1m208.736 15c-5.671 11.597-9.518 14.51-32.339 24.492-10.992 4.808-24.261 10.486-29.486 12.619s-14.675 6.131-21 8.885c-45.899 19.986-52.964 21.862-63.5 16.862-5.349-2.539-9.482-6.124-16.265-14.108-4.243-4.995-4.245-4.996-1.991-.959 5.679 10.173 12.568 16.943 19.655 19.319 4.799 1.609 12.813 1.415 19.139-.464 2.971-.882 13.29-4.96 22.932-9.063 9.641-4.102 26.08-11.098 36.53-15.547 58.412-24.865 61.902-26.812 67.41-37.61 1.95-3.822 3.769-11.176 2.764-11.176-.302 0-2.034 3.037-3.849 6.75m-195.83 14.581c-1.377.643-3.041 1.518-3.697 1.945-.797.519 2.589 4.554 10.211 12.169 10.088 10.079 14.73 13.649 16.042 12.337.477-.476-10.85-18.864-14.853-24.112-2.991-3.921-3.792-4.164-7.703-2.339"/><path fill="#1976D2" fill-opacity=".942" fill-rule="evenodd" d="M132.5 13.903c-9.431 2.571-34.59 11.89-47.5 17.595-5.775 2.552-12.3 5.373-14.5 6.269-5.645 2.298-23.087 11.313-35.698 18.451-11.778 6.667-23.297 15.35-25.953 19.565-.942 1.494-3.141 7.872-4.886 14.172-5.161 18.626-3.672 24.661 11.785 47.765C40.946 175.385 46 183.068 46 183.712c0 .392-1.237 1.75-2.75 3.017l-2.75 2.303 13 12.608c14.178 13.751 17.623 16.351 21.678 16.356 2.184.003 3.324 1.063 6.187 5.754C86 231.343 93.322 238.375 99.5 241.165c9.872 4.458 20.879 2.325 47.5-9.204 7.425-3.216 27.9-12.001 45.5-19.522 50.857-21.734 53.823-23.498 59.352-35.291 2.413-5.146 2.646-6.724 2.626-17.754-.021-11.744-.12-12.294-3.331-18.419-3.872-7.387-12.747-20.842-21.471-32.552-11.181-15.006-20.434-27.825-24.712-34.235-2.316-3.471-5.546-7.296-7.177-8.5-1.9-1.402-5.251-6.677-9.331-14.688C177.25 29 170.394 20.319 160 14.97c-6.247-3.214-17.957-3.669-27.5-1.067m3.5 2.501c-18.581 4.393-50.014 17.007-80.364 32.248C28.481 62.289 14.689 71.97 10.533 80.31c-3.683 7.39-3.532 15.587.424 23.109C15.38 111.826 31.963 133 34.125 133c1.56 0-1.69-5.289-10.229-16.648C13.962 103.137 12.044 99.196 12.044 92c0-10.591 4.462-16.199 21.103-26.522 11.849-7.35 39.792-21.221 57.597-28.591 44.372-18.367 54.567-20.82 66.03-15.889 6.238 2.684 14.372 11.027 18.58 19.056 4.149 7.919 11.922 19.265 13.546 19.774 2.846.892-15.075-29.04-20.879-34.871-8.656-8.697-19.342-11.552-32.021-8.553m1.713 5.216C118.431 25.758 54.535 53.951 32.5 68.043 18.029 77.297 14 82.519 14 92.018c0 5.734 1.761 9.796 6.581 15.174l3.308 3.691-.153-3.838c-.084-2.111.416-4.523 1.11-5.36s4.657-2.76 8.805-4.273 7.751-3.296 8.007-3.964c.256-.667-.687-3.953-2.096-7.301-3.13-7.437-3.156-8.395-.312-11.461 2.024-2.181 27.007-12.642 44.518-18.64 3.153-1.08 14.498-5.357 25.212-9.505C119.694 42.394 128.816 39 129.252 39s5.972-2.025 12.302-4.5 12.52-4.5 13.755-4.5c3.733 0 6.588 2.817 9.61 9.482 3.175 7.001 5.873 9.235 9.081 7.518 1.1-.589 2-1.467 2-1.951 0-.485-2.308-4.332-5.128-8.548-5.915-8.844-12.254-13.955-19.171-15.458-5.731-1.245-5.442-1.257-13.988.577M147 35.189c-3.025 1.159-16.3 6.157-29.5 11.107s-31.65 11.934-41 15.519-20.511 7.791-24.803 9.345C41.008 75.032 40 75.67 40 78.575c0 1.97 3.06 9.571 4.526 11.245.154.176 10.787-3.57 23.627-8.324A22233 22233 0 0 1 114 64.589l35.876-13.176c7.357-2.702 13.585-5.454 13.839-6.116s-.815-3.586-2.376-6.5c-3.382-6.31-5.737-6.902-14.339-3.608m12 15.419c-3.596 1.573-39.304 14.75-58 21.404-15.918 5.665-46.013 16.855-50.311 18.706C46.838 92.376 45 94.553 45 97.455 45 98.884 52.865 116 53.522 116c.15 0 2.906-1.306 6.125-2.903s9.903-4.577 14.853-6.625 15.075-6.413 22.5-9.7 16.2-7.005 19.5-8.262 11.4-4.631 18-7.497c6.6-2.867 14.25-6.083 17-7.147 10.877-4.209 25.5-11.251 25.496-12.279-.005-1.452-3.698-7.534-6.275-10.337-2.437-2.65-6.606-2.878-11.721-.642m16.509.378c-1.002 1.621 4.41 9.982 6.054 9.352 1.915-.736 1.87-.943-1.313-5.981-2.825-4.473-3.683-5.083-4.741-3.371M178 65.509c-2.475 1.33-7.875 3.756-12 5.391-4.125 1.634-13.35 5.511-20.5 8.614s-17.299 7.353-22.553 9.444-16.279 6.703-24.5 10.25S78.775 107.614 73 110.006c-12.113 5.016-20.354 9.918-22.073 13.13-2.24 4.186-1.383 9.092 3.085 17.654 2.356 4.515 4.422 8.21 4.589 8.21s1.407-.502 2.755-1.116l2.449-1.116-2.902-6.134c-3.439-7.271-3.554-9.054-.867-13.461 2.372-3.89 4.747-5.047 38.112-18.554 12.844-5.2 27.104-11.066 31.691-13.037 13.426-5.768 17.655-4.637 23.071 6.168 1.172 2.338 2.758 4.25 3.525 4.25 1.452 0 41.138-19.435 43.292-21.201.938-.768.49-2.101-1.9-5.652-1.72-2.556-4.038-5.66-5.151-6.897-1.497-1.664-1.654-2.249-.6-2.245 1.188.005 6.423 6.322 9.885 11.931.729 1.181 1.162 1.207 2.442.145 1.864-1.547 1.314-2.786-4.198-9.456-8.034-9.722-13.874-11.594-22.205-7.116m27.653 19.243c-.255.413 3.676 5.926 8.735 12.25 15.392 19.237 31.511 45.611 33.121 54.193.939 5.008-1.442 9.121-6.732 11.624-9.006 4.263-18.507 8.424-24.277 10.633-3.3 1.263-11.4 4.872-18 8.019s-18.083 7.868-25.517 10.491c-13.261 4.678-27.593 10.982-51.473 22.639-18.825 9.19-20.766 8.542-29.965-10.001-3.029-6.105-6.395-12.675-7.48-14.6s-4.736-8.45-8.114-14.5C68.428 162.026 61.388 152 59.449 152c-.797 0-1.449.19-1.449.423s2.994 5.745 6.652 12.25S73.766 181.225 76.774 187s6.947 13.039 8.753 16.143c1.807 3.103 4.251 7.828 5.432 10.5 2.66 6.015 6.364 9.978 10.644 11.391 4.672 1.542 10.36-.387 30.235-10.254 18.555-9.211 33.148-15.795 40.589-18.313 2.71-.916 12.16-4.81 21-8.652s23.037-9.858 31.548-13.369c17.381-7.169 22.708-10.423 25.329-15.471 4.598-8.855-.309-18.065-33.155-62.225-9.106-12.242-10.467-13.663-11.496-11.998m-23.675 12.624c-11.288 5.629-24.563 11.945-29.5 14.038S137.875 117.595 131 120.5c-6.875 2.904-18.575 8.207-26 11.784-12.741 6.137-36.372 16.737-40.291 18.074-1.57.535-1.189 1.508 3.08 7.876 2.678 3.996 5.565 8.616 6.415 10.266s3.646 6.6 6.214 11 7.56 13.97 11.092 21.266C98.33 214.855 101.624 219 105.998 219c1.488 0 7.835-2.526 14.104-5.613 22.58-11.118 39.608-18.6 51.067-22.437 6.417-2.149 16.992-6.441 23.5-9.539s15.881-7.319 20.831-9.381c20.617-8.588 24.955-10.665 27.78-13.298 2.685-2.502 2.905-3.174 2.295-7-.863-5.409-6.074-15.042-17.234-31.86-8.994-13.553-23.844-32.932-25.135-32.8-.388.039-9.941 4.676-21.228 10.304M134 95.184c-3.997 1.814-20.318 8.479-57 23.278-16.326 6.586-18.516 9.701-13.58 19.321 3.768 7.342 4.927 8.559 7.406 7.772 2.229-.707 2.979-3.939 1.174-5.055-.55-.34-.986-1.154-.97-1.809s.52-.35 1.117.679c.7 1.205 1.327 1.48 1.764.775.706-1.143 2.979-1.572 6.898-1.303 1.27.087 2.042.59 1.716 1.118-.824 1.332 5.622-.894 7.405-2.557 1.227-1.145 1.097-1.457-.911-2.2-1.879-.695-2.027-.986-.753-1.475.873-.335 2.126.039 2.783.831 1.757 2.117 5.05 1.779 5.667-.58.415-1.588.824-1.776 1.906-.878 1.791 1.486 4.331-.477 4.494-3.473.092-1.69.21-1.768.573-.378.531 2.029.803 2.093 3.287.763 1.014-.543 1.724-1.78 1.577-2.75-.146-.97-.073-1.2.164-.513.597 1.737 2.266 1.558 5.852-.629 1.688-1.029 4.114-2.203 5.391-2.608s5.972-2.417 10.432-4.469c4.459-2.053 8.895-4.013 9.858-4.356.963-.344 1.75-1.059 1.75-1.589 0-1.092 3.802-2.639 7.309-2.974.72-.069 2.085-.692 3.033-1.386 1.602-1.171 1.504-1.669-1.38-6.993-4.948-9.135-8.374-10.46-16.962-6.562M3.439 98.474c-1.89 10.076.965 16.447 20.852 46.526 18.654 28.214 24.658 36.367 27.135 36.844 2.658.511 1.71-1.401-5.241-10.565-3.244-4.279-6.079-8.229-6.3-8.779-.327-.816-16.716-25.905-26.456-40.5-3.874-5.805-6.344-12.345-7.353-19.464-1.143-8.077-1.718-8.962-2.637-4.062m32.064 1.661c-2.748 1.114-5.174 2.203-5.39 2.419-.217.216 1.229 2.189 3.212 4.384 1.983 2.194 4.755 6.261 6.162 9.035l2.556 5.046 3.983-2.032 3.982-2.032-1.413-3.227c-4.523-10.336-7.128-15.722-7.581-15.673-.283.03-2.763.966-5.511 2.08m-8.465 4.319c-1.083 1.306-.844 2.813 1.443 9.082 1.507 4.134 3.576 8.517 4.597 9.74 2.955 3.541 2.268.256-1.578-7.551-3.92-7.957-3.842-7.725-2.578-7.725.507 0 2.524 3.375 4.482 7.5 2.125 4.476 4.172 7.5 5.078 7.5.835 0 1.518-.435 1.518-.966 0-1.431-6.678-13.103-9.348-16.339-2.056-2.491-2.461-2.63-3.614-1.241M10 111.55c0 2.558 35.216 56.489 42.412 64.95 4.617 5.429 5.543 3.904 1.135-1.87-1.942-2.544-7.853-11.264-13.135-19.378-5.283-8.114-10.323-15.314-11.2-16.002-2.183-1.712-.733-1.571 2.838.276 1.622.839 2.95 1.99 2.95 2.559 0 .568.479.737 1.064.375.626-.386-.598-2.082-2.968-4.11-4.068-3.482-12.793-13.835-19.046-22.6-3.259-4.568-4.05-5.388-4.05-4.2m169 3.84c-3.025 1.288-10 4.364-15.5 6.835s-20.332 9.099-32.961 14.73-23.526 10.983-24.218 11.892c-1.942 2.553-1.56 6.556 1.23 12.864 3.221 7.283 6.016 10.289 9.567 10.289 1.523 0 8.532-2.73 15.576-6.067 7.043-3.336 16.406-7.584 20.806-9.439s16.1-7.148 26-11.762c21.968-10.24 22.338-10.648 17.967-19.819-3.625-7.604-7.48-11.921-10.618-11.889-1.292.013-4.824 1.078-7.849 2.366m.597 1.237c-1.596.878-6.996 3.308-12 5.4-5.003 2.091-14.047 6.138-20.097 8.992s-13.7 6.233-17 7.508-9.927 4.144-14.726 6.376c-6.926 3.221-8.859 4.587-9.369 6.621-1.161 4.622 4.648 16.632 9.004 18.617 2.042.93 3.621.525 10.252-2.629 9.542-4.538 27.211-12.512 27.724-12.512.206 0 7.29-3.309 15.744-7.354s16.946-7.87 18.871-8.501c5.303-1.739 9.652-4.704 10.25-6.991.341-1.306-.968-4.701-3.607-9.352-3.99-7.032-4.291-7.311-8.143-7.537-2.217-.131-5.294.477-6.903 1.362M41.25 124.989c-1.788 1.09-3.24 2.326-3.228 2.746.013.421 2.504 4.365 5.536 8.765s6.509 9.457 7.727 11.238c4.217 6.164 3.631 3.217-1.389-6.988-4.103-8.339-4.954-10.949-4.565-14 .552-4.326.303-4.434-4.081-1.761M185.461 126c.296.825.815 2.287 1.155 3.25.703 1.992 1.268 2.118 3.384.75 1.305-.843 1.288-.971-.128-.985-.895-.008-2.375-1.028-3.288-2.265-.914-1.237-1.419-1.575-1.123-.75m-9.711 3.596c-4.252 2.134-6.292 3.819-3.821 3.154.512-.137 1.644.65 2.516 1.75 1.54 1.943 1.569 1.925.996-.614-.692-3.069 1.708-4.616 3.608-2.327 2.573 3.1 7.709.726 5.869-2.712-1.267-2.368-3.287-2.203-9.168.749m4.938-.95c-1.416 1.415-.615 3.354 1.385 3.354 1.398 0 1.968-.543 1.75-1.667-.357-1.841-2.064-2.759-3.135-1.687M177 132.819c0 1.208 1.897 2.617 2.591 1.924.251-.252-.229-1.027-1.067-1.723-.95-.789-1.524-.865-1.524-.201m-7.396 2.517c1.043 1.431 2.288 2.615 2.768 2.633 1.241.044-1.776-4.27-3.354-4.796-.817-.273-.596.543.586 2.163m-6.558.108c-2.701 3.255 1.769 7.17 4.765 4.174 1.273-1.274 1.404-2.055.565-3.387-1.46-2.318-3.775-2.66-5.33-.787m1.058.491c-1.702 1.053-.735 4.065 1.306 4.065 2.195 0 3.016-2.003 1.458-3.56-.859-.859-1.887-1.047-2.764-.505M157.2 137.2c-2.804 2.804.467 7.86 3.766 5.821.999-.617.722-.93-1.044-1.18-2.688-.382-4.035-3.841-1.495-3.841.865 0 1.573-.45 1.573-1 0-1.356-1.34-1.26-2.8.2m-15.935 7.003c-7.73 3.817-8.197 4.227-7.601 6.682.617 2.539.578 2.564-1.343.865-2.604-2.303-3.603-2.214-2.821.25.648 2.043-.882 2.809-2 1-.34-.55-1.154-.99-1.809-.978-1.242.023 3.245 3.917 4.559 3.956.412.012.75-.743.75-1.678 0-1.322.267-1.433 1.2-.5 2.037 2.037 2.799 1.352 2.832-2.55.029-3.471.138-3.609 1.464-1.858.787 1.04 1.59 2.366 1.784 2.947.339 1.019 9.72-2.724 9.72-3.879 0-.292-.939-.028-2.086.586-2.335 1.25-4.137.328-1.973-1.01 1.037-.64.779-.947-1.029-1.224-2.348-.359-2.327-.415.788-2.091 4.11-2.21 5.024-2.166 5.8.279.349 1.1 1.065 2 1.59 2s.244-1.087-.627-2.417c-1.466-2.236-1.449-2.495.227-3.469 1.355-.788 1.433-1.044.31-1.015-.825.021-5.206 1.868-9.735 4.104m-94.932 4.047c2.365 3.988 5.527 9.184 7.026 11.549 1.5 2.364 3.184 5.5 3.742 6.968.559 1.468 4.086 7.859 7.838 14.201 3.753 6.343 8.051 13.782 9.551 16.532s3.723 6.575 4.94 8.5c9.027 14.278 13.749 21 14.751 21 .642 0 .193-1.037-.998-2.305-2.249-2.394-7.085-11.08-17.088-30.695-7.378-14.467-18.57-33.718-21.511-37-1.232-1.375-4.365-5.537-6.962-9.25-2.598-3.713-4.918-6.75-5.155-6.75s1.502 3.262 3.866 7.25m91.917-1.552c-1.729.648-1.572 2.302.219 2.302.949 0 1.246.579.84 1.636-.422 1.1-.186 1.49.719 1.188.741-.247 1.494-.889 1.673-1.427.5-1.501-2.043-4.226-3.451-3.699m-16.823 6.745c-2.251 1.662-1.227 3.174 2.573 3.799l2.5.411-2.5 1.11c-2.595 1.153-1.366 1.698 1.418.63 2.529-.97 1.874-3.393-.918-3.393-2.601 0-3.425-1.503-1.25-2.28.688-.245.992-.728.677-1.073-.315-.344-1.44.014-2.5.796m125.721 18.542c-5.406 11.263-8.092 13.27-31.776 23.752-48.48 21.456-91.309 38.949-98.704 40.317-12.118 2.24-20.953-2.609-32.355-17.759-3.056-4.061-5.753-7.188-5.993-6.949-.854.855 8.261 14.994 12.68 19.668 6.599 6.98 11.919 9.388 20.5 9.278 9.242-.118 11.245-.861 68-25.25 9.9-4.254 19.575-8.343 21.5-9.085s11.544-5.078 21.376-9.634c19.332-8.957 22.175-11.135 27.097-20.769 2.403-4.703 3.388-10.554 1.777-10.554-.412 0-2.259 3.144-4.102 6.985m-3.554-2.137c-.334.54-4.091 2.314-8.35 3.942-6.896 2.635-22.969 9.649-45.244 19.743-4.125 1.869-15.825 6.746-26 10.837-20.568 8.271-49.461 22.173-44.111 21.225 1.864-.33 11.457-4.443 21.319-9.139 9.861-4.697 20.711-9.589 24.111-10.871 3.399-1.283 10.906-4.365 16.681-6.849s21.332-9.116 34.571-14.737c23.192-9.847 29.618-13.143 28.264-14.497-.349-.349-.908-.193-1.241.346m-6.094 9.018c-4.822 3.246-16.441 8.666-30 13.994-5.5 2.162-12.475 5.034-15.5 6.384s-10.225 4.377-16 6.726-17.7 7.551-26.5 11.558-19.375 8.761-23.5 10.564c-9.168 4.008-17.679 4.9-23.536 2.467l-3.964-1.647 2.283 2.294c2.052 2.062 3.164 2.283 11 2.188 8.423-.103 9.29-.345 25.717-7.166 41.878-17.389 59.65-24.972 72.089-30.761 4.998-2.326 10.173-4.567 11.5-4.979 7.919-2.46 17.927-8.821 20.038-12.738 1.155-2.143 1.262-2.176-3.627 1.116M51.961 185.85c-1.946.974-4.053 2.089-4.683 2.478-.714.441 3.517 5.174 11.224 12.557 12.42 11.896 17.267 15.181 15.913 10.782-1.25-4.061-16.817-27.703-18.191-27.627-.398.022-2.316.836-4.263 1.81"/></svg>